<mxfile host="app.diagrams.net" modified="2023-09-28T07:14:35.931Z" agent="Mozilla/5.0 (Windows NT 10.0; Win64; x64; rv:109.0) Gecko/20100101 Firefox/117.0" etag="n3tgqTSFf6qGY6XV2Ynx" version="21.8.2" type="device">
  <diagram id="C5RBs43oDa-KdzZeNtuy" name="Page-1">
    <mxGraphModel dx="1930" dy="878" grid="1" gridSize="10" guides="1" tooltips="1" connect="1" arrows="1" fold="1" page="1" pageScale="1" pageWidth="827" pageHeight="1169" math="0" shadow="0">
      <root>
        <mxCell id="WIyWlLk6GJQsqaUBKTNV-0" />
        <mxCell id="WIyWlLk6GJQsqaUBKTNV-1" parent="WIyWlLk6GJQsqaUBKTNV-0" />
        <mxCell id="GRbMy3bL4gG7srACkzMk-0" value="ENTRY" style="text;html=1;align=center;verticalAlign=middle;resizable=0;points=[];autosize=1;strokeColor=none;fillColor=none;" vertex="1" parent="WIyWlLk6GJQsqaUBKTNV-1">
          <mxGeometry x="177" y="108" width="70" height="30" as="geometry" />
        </mxCell>
        <mxCell id="GRbMy3bL4gG7srACkzMk-2" value="" style="endArrow=classic;html=1;rounded=0;entryX=0.5;entryY=0;entryDx=0;entryDy=0;" edge="1" parent="WIyWlLk6GJQsqaUBKTNV-1">
          <mxGeometry width="50" height="50" relative="1" as="geometry">
            <mxPoint x="180" y="90" as="sourcePoint" />
            <mxPoint x="180" y="170" as="targetPoint" />
          </mxGeometry>
        </mxCell>
        <mxCell id="GRbMy3bL4gG7srACkzMk-174" value="" style="edgeStyle=orthogonalEdgeStyle;rounded=0;orthogonalLoop=1;jettySize=auto;html=1;" edge="1" parent="WIyWlLk6GJQsqaUBKTNV-1" source="GRbMy3bL4gG7srACkzMk-172" target="GRbMy3bL4gG7srACkzMk-173">
          <mxGeometry relative="1" as="geometry" />
        </mxCell>
        <mxCell id="GRbMy3bL4gG7srACkzMk-172" value="&lt;font size=&quot;3&quot;&gt;This is a template function that with replacement of the variables can create different things&lt;br&gt;&lt;/font&gt;" style="ellipse;whiteSpace=wrap;html=1;" vertex="1" parent="WIyWlLk6GJQsqaUBKTNV-1">
          <mxGeometry x="70" y="170" width="220" height="100" as="geometry" />
        </mxCell>
        <mxCell id="GRbMy3bL4gG7srACkzMk-175" value="" style="edgeStyle=orthogonalEdgeStyle;rounded=0;orthogonalLoop=1;jettySize=auto;html=1;" edge="1" parent="WIyWlLk6GJQsqaUBKTNV-1" source="GRbMy3bL4gG7srACkzMk-173">
          <mxGeometry relative="1" as="geometry">
            <mxPoint x="180" y="460" as="targetPoint" />
          </mxGeometry>
        </mxCell>
        <mxCell id="GRbMy3bL4gG7srACkzMk-173" value="&lt;div&gt;&lt;font style=&quot;font-size: 18px;&quot;&gt;variables:&lt;/font&gt;&lt;/div&gt;&lt;div&gt;&lt;font size=&quot;3&quot;&gt;ingredientType&lt;br&gt;&lt;/font&gt;&lt;/div&gt;&lt;div&gt;&lt;font size=&quot;3&quot;&gt;ingredientCount&lt;/font&gt;&lt;br&gt;&lt;/div&gt;" style="ellipse;whiteSpace=wrap;html=1;" vertex="1" parent="WIyWlLk6GJQsqaUBKTNV-1">
          <mxGeometry x="80" y="310" width="200" height="90" as="geometry" />
        </mxCell>
        <mxCell id="GRbMy3bL4gG7srACkzMk-179" value="" style="edgeStyle=orthogonalEdgeStyle;rounded=0;orthogonalLoop=1;jettySize=auto;html=1;" edge="1" parent="WIyWlLk6GJQsqaUBKTNV-1" source="GRbMy3bL4gG7srACkzMk-177" target="GRbMy3bL4gG7srACkzMk-178">
          <mxGeometry relative="1" as="geometry" />
        </mxCell>
        <mxCell id="GRbMy3bL4gG7srACkzMk-187" style="edgeStyle=orthogonalEdgeStyle;rounded=0;orthogonalLoop=1;jettySize=auto;html=1;entryX=0.5;entryY=0;entryDx=0;entryDy=0;" edge="1" parent="WIyWlLk6GJQsqaUBKTNV-1" source="GRbMy3bL4gG7srACkzMk-188" target="GRbMy3bL4gG7srACkzMk-185">
          <mxGeometry relative="1" as="geometry" />
        </mxCell>
        <mxCell id="GRbMy3bL4gG7srACkzMk-191" style="edgeStyle=orthogonalEdgeStyle;rounded=0;orthogonalLoop=1;jettySize=auto;html=1;entryX=0;entryY=0.5;entryDx=0;entryDy=0;" edge="1" parent="WIyWlLk6GJQsqaUBKTNV-1" source="GRbMy3bL4gG7srACkzMk-177" target="GRbMy3bL4gG7srACkzMk-188">
          <mxGeometry relative="1" as="geometry" />
        </mxCell>
        <mxCell id="GRbMy3bL4gG7srACkzMk-177" value="&lt;font style=&quot;font-size: 18px;&quot;&gt;ingredientType exists ingredientCount times&amp;nbsp; in inventory&lt;/font&gt;" style="rhombus;whiteSpace=wrap;html=1;" vertex="1" parent="WIyWlLk6GJQsqaUBKTNV-1">
          <mxGeometry x="80" y="460" width="200" height="130" as="geometry" />
        </mxCell>
        <mxCell id="GRbMy3bL4gG7srACkzMk-182" value="" style="edgeStyle=orthogonalEdgeStyle;rounded=0;orthogonalLoop=1;jettySize=auto;html=1;" edge="1" parent="WIyWlLk6GJQsqaUBKTNV-1" source="GRbMy3bL4gG7srACkzMk-178" target="GRbMy3bL4gG7srACkzMk-181">
          <mxGeometry relative="1" as="geometry" />
        </mxCell>
        <mxCell id="GRbMy3bL4gG7srACkzMk-178" value="&lt;div&gt;&lt;font style=&quot;font-size: 18px;&quot;&gt;removeItemFromInventory&lt;/font&gt;&lt;/div&gt;&lt;div&gt;&lt;font style=&quot;font-size: 18px;&quot;&gt;(ingredientType&lt;/font&gt;&lt;font style=&quot;font-size: 14px;&quot;&gt;,&lt;/font&gt;&lt;font style=&quot;font-size: 18px;&quot;&gt;ingredientCount)&lt;/font&gt;&lt;/div&gt;&lt;div&gt;&lt;br&gt;&lt;/div&gt;&lt;div&gt;&lt;font size=&quot;3&quot;&gt;removes ingredientCount of type ingredientType from the inventory&lt;/font&gt;&lt;br&gt;&lt;/div&gt;" style="shape=process;whiteSpace=wrap;html=1;backgroundOutline=1;" vertex="1" parent="WIyWlLk6GJQsqaUBKTNV-1">
          <mxGeometry x="10" y="630" width="340" height="100" as="geometry" />
        </mxCell>
        <mxCell id="GRbMy3bL4gG7srACkzMk-184" value="" style="edgeStyle=orthogonalEdgeStyle;rounded=0;orthogonalLoop=1;jettySize=auto;html=1;" edge="1" parent="WIyWlLk6GJQsqaUBKTNV-1" source="GRbMy3bL4gG7srACkzMk-181" target="GRbMy3bL4gG7srACkzMk-183">
          <mxGeometry relative="1" as="geometry" />
        </mxCell>
        <mxCell id="GRbMy3bL4gG7srACkzMk-181" value="&lt;div&gt;&lt;font style=&quot;font-size: 18px;&quot;&gt;addCraftedItem(craftedItem)&lt;/font&gt;&lt;/div&gt;&lt;div&gt;&lt;font size=&quot;3&quot;&gt;&lt;br&gt;&lt;/font&gt;&lt;/div&gt;&lt;div&gt;&lt;font size=&quot;3&quot;&gt;Add one of the requested item to the inventory&lt;/font&gt;&lt;br&gt;&lt;/div&gt;" style="shape=process;whiteSpace=wrap;html=1;backgroundOutline=1;" vertex="1" parent="WIyWlLk6GJQsqaUBKTNV-1">
          <mxGeometry x="25" y="790" width="310" height="100" as="geometry" />
        </mxCell>
        <mxCell id="GRbMy3bL4gG7srACkzMk-186" style="edgeStyle=orthogonalEdgeStyle;rounded=0;orthogonalLoop=1;jettySize=auto;html=1;entryX=0;entryY=0.5;entryDx=0;entryDy=0;" edge="1" parent="WIyWlLk6GJQsqaUBKTNV-1" source="GRbMy3bL4gG7srACkzMk-183" target="GRbMy3bL4gG7srACkzMk-185">
          <mxGeometry relative="1" as="geometry" />
        </mxCell>
        <mxCell id="GRbMy3bL4gG7srACkzMk-183" value="&lt;font style=&quot;font-size: 18px;&quot;&gt;OUTPUT A CONFIRMATORY MESSAGE&lt;/font&gt;" style="shape=parallelogram;perimeter=parallelogramPerimeter;whiteSpace=wrap;html=1;fixedSize=1;" vertex="1" parent="WIyWlLk6GJQsqaUBKTNV-1">
          <mxGeometry x="50" y="940" width="260" height="80" as="geometry" />
        </mxCell>
        <mxCell id="GRbMy3bL4gG7srACkzMk-185" value="&lt;font style=&quot;font-size: 24px;&quot;&gt;END&lt;/font&gt;" style="ellipse;whiteSpace=wrap;html=1;" vertex="1" parent="WIyWlLk6GJQsqaUBKTNV-1">
          <mxGeometry x="450" y="935" width="220" height="90" as="geometry" />
        </mxCell>
        <mxCell id="GRbMy3bL4gG7srACkzMk-188" value="&lt;font style=&quot;font-size: 18px;&quot;&gt;OUTPUT AN ERROR MESSAGE&lt;/font&gt;" style="shape=parallelogram;perimeter=parallelogramPerimeter;whiteSpace=wrap;html=1;fixedSize=1;" vertex="1" parent="WIyWlLk6GJQsqaUBKTNV-1">
          <mxGeometry x="463.13" y="485" width="193.75" height="80" as="geometry" />
        </mxCell>
        <mxCell id="GRbMy3bL4gG7srACkzMk-192" value="&lt;font style=&quot;font-size: 18px;&quot;&gt;FALSE&lt;/font&gt;" style="text;html=1;align=center;verticalAlign=middle;resizable=0;points=[];autosize=1;strokeColor=none;fillColor=none;" vertex="1" parent="WIyWlLk6GJQsqaUBKTNV-1">
          <mxGeometry x="280" y="485" width="80" height="40" as="geometry" />
        </mxCell>
        <mxCell id="GRbMy3bL4gG7srACkzMk-193" value="&lt;font style=&quot;font-size: 18px;&quot;&gt;TRUE&lt;/font&gt;" style="text;html=1;align=center;verticalAlign=middle;resizable=0;points=[];autosize=1;strokeColor=none;fillColor=none;" vertex="1" parent="WIyWlLk6GJQsqaUBKTNV-1">
          <mxGeometry x="177" y="585" width="70" height="40" as="geometry" />
        </mxCell>
      </root>
    </mxGraphModel>
  </diagram>
</mxfile>
